<?xml version="1.0" encoding="UTF-8" standalone="no"?><!DOCTYPE svg PUBLIC "-//W3C//DTD SVG 1.1//EN" "http://www.w3.org/Graphics/SVG/1.1/DTD/svg11.dtd"><svg width="100%" height="100%" viewBox="0 0 150 167" version="1.1" xmlns="http://www.w3.org/2000/svg" xmlns:xlink="http://www.w3.org/1999/xlink" xml:space="preserve" xmlns:serif="http://www.serif.com/" style="fill-rule:evenodd;clip-rule:evenodd;stroke-linejoin:round;stroke-miterlimit:2;"><g id="Fundo"><path d="M51.895,146.581c2.905,-12.954 6.853,-27.575 6.853,-27.575l-50.866,-0.288c0,0 14.113,-20.359 26.123,-72.323c4.337,-18.762 4.681,-35.504 22.464,-38.119c1.784,-0.262 4.319,-0.163 4.319,-0.163c0,0 -13.011,61.755 -24.367,92.368c-0.341,0.92 -0.656,2.178 -0.656,2.178c0,0 76.035,2.911 84.878,-12.08c11.61,-19.682 -13.76,-34.61 -29.935,-17.882c-9.489,9.813 -3.591,26.678 -25.25,26.214c-0.77,-0.016 -2.607,-0.273 -2.607,-0.273c0,0 1.102,-4.423 3.521,-13.163c0.645,-2.333 3.344,-17.898 14.458,-26.57c32.259,-25.171 68.383,0.289 58.81,30.646c-10.997,34.873 -62.661,28.584 -62.733,29.597c0,0 -2.97,10.221 -6.128,24.417c-3.641,16.364 -21.986,16.999 -21.986,16.999c0,0 0.198,-1.029 3.102,-13.984Z" style="fill:url(#_Linear1);"/></g><defs><linearGradient id="_Linear1" x1="0" y1="0" x2="1" y2="0" gradientUnits="userSpaceOnUse" gradientTransform="matrix(133.324797,0,0,152.469462,7.881767,84.330269)"><stop offset="0" style="stop-color:#8f20df;stop-opacity:1"/><stop offset="1" style="stop-color:#7020df;stop-opacity:1"/></linearGradient></defs></svg>