<svg width="165" height="58" viewBox="0 0 165 58" fill="none" xmlns="http://www.w3.org/2000/svg">
<path d="M10.992 11.736V38.76H23.952L23.136 45H3.12V11.736H10.992ZM48.3863 45H41.8103L41.4743 41.784C39.6183 44.472 37.0423 45.816 33.7463 45.816C31.4103 45.816 29.6343 45.112 28.4183 43.704C27.2343 42.296 26.6423 40.328 26.6423 37.8V19.512H34.2263V36.84C34.2263 38.088 34.4183 38.968 34.8023 39.48C35.2183 39.96 35.8423 40.2 36.6743 40.2C38.2743 40.2 39.6503 39.208 40.8023 37.224V19.512H48.3863V45ZM72.303 19.512V24.84L60.783 39.24H72.543L71.871 45H51.999V39.624L63.567 25.224H53.007V19.512H72.303ZM83.9663 19.512V45H76.3823V19.512H83.9663ZM80.1263 6.072C81.4383 6.072 82.5103 6.488 83.3423 7.32C84.2063 8.12 84.6383 9.144 84.6383 10.392C84.6383 11.64 84.2063 12.68 83.3423 13.512C82.5103 14.312 81.4383 14.712 80.1263 14.712C78.8143 14.712 77.7423 14.312 76.9103 13.512C76.0783 12.68 75.6623 11.64 75.6623 10.392C75.6623 9.144 76.0783 8.12 76.9103 7.32C77.7423 6.488 78.8143 6.072 80.1263 6.072ZM111.865 19.512L103.849 45H94.8731L86.6651 19.512H94.9211L99.4331 39.24L104.137 19.512H111.865ZM133.716 37.608C133.716 38.568 133.844 39.272 134.1 39.72C134.388 40.168 134.836 40.504 135.444 40.728L133.86 45.672C132.292 45.544 131.012 45.208 130.02 44.664C129.028 44.088 128.26 43.192 127.716 41.976C126.052 44.536 123.492 45.816 120.036 45.816C117.508 45.816 115.492 45.08 113.988 43.608C112.484 42.136 111.732 40.216 111.732 37.848C111.732 35.064 112.756 32.936 114.804 31.464C116.852 29.992 119.812 29.256 123.684 29.256H126.276V28.152C126.276 26.648 125.956 25.624 125.316 25.08C124.676 24.504 123.556 24.216 121.956 24.216C121.124 24.216 120.116 24.344 118.932 24.6C117.748 24.824 116.532 25.144 115.284 25.56L113.556 20.568C115.156 19.96 116.788 19.496 118.452 19.176C120.148 18.856 121.716 18.696 123.156 18.696C126.804 18.696 129.476 19.448 131.172 20.952C132.868 22.456 133.716 24.712 133.716 27.72V37.608ZM122.244 40.392C123.972 40.392 125.316 39.576 126.276 37.944V33.432H124.404C122.676 33.432 121.38 33.736 120.516 34.344C119.684 34.952 119.268 35.896 119.268 37.176C119.268 38.2 119.524 39 120.036 39.576C120.58 40.12 121.316 40.392 122.244 40.392ZM154.685 18.696C156.893 18.696 158.621 19.368 159.869 20.712C161.117 22.056 161.741 23.944 161.741 26.376V45H154.157V27.672C154.157 26.392 153.949 25.512 153.533 25.032C153.149 24.52 152.557 24.264 151.757 24.264C150.221 24.264 148.749 25.368 147.341 27.576V45H139.757V19.512H146.381L146.909 22.536C147.997 21.256 149.165 20.296 150.413 19.656C151.693 19.016 153.117 18.696 154.685 18.696Z" fill="#141414"/>
</svg>
